<svg width="170.9mm" height="142.81mm" version="1.1" viewBox="0 0 170.9 142.81" xmlns="http://www.w3.org/2000/svg">
 <g transform="translate(543.25 219.02)">
  <g transform="matrix(.26458 0 0 .26458 -588.28 -242.81)">
   <g transform="translate(-34.694 -685.83)">
    <polygon transform="rotate(-17.678 2803 407.49)" points="285.7 62.2 297.3 73.8 258.7 112.4 258.7 157.8 242.4 157.8 242.4 105.6" style="fill-opacity:.027397;fill:#9c9e9e"/>
    <path d="m217.66 1002.4 89.349 207.88c2.9749 7.0285 10.834 10.611 18.17 8.2728l107-34.103c7.2411-2.3079 11.578-9.7775 10.032-17.262l-47.426-221.25z" style="fill-opacity:.027397;fill:#9c9e9e"/>
    <rect transform="rotate(-17.678)" x="-110.41" y="1021.1" width="212.6" height="30.3" style="fill-opacity:.027397;fill:#9c9e9e"/>
    <path d="m371.85 920.07-149.2 47.555c-5.4308 1.7309-8.4167 7.5106-6.6858 12.941l6.4075 20.104 168.74-53.781-6.4379-20.199c-1.731-5.4308-7.4802-8.3214-12.816-6.6208z" style="fill-opacity:.027397;fill:#9c9e9e"/>
    <g transform="matrix(.74201 0 0 .74201 110.81 488.27)" style="fill-opacity:.058219;fill:#9c9e9e">
     <g style="fill-opacity:.058219;fill:#9c9e9e">
      <path d="m935.21 813.03c11.25-16.925 9.4218-40.038-5.4883-54.948-14.911-14.909-38.025-16.736-54.952-5.4842-11.9-7.2991-25.512-11.15-39.608-11.15-20.257 0-39.302 7.8876-53.625 22.211l-165.35 165.35c-24.891 24.889-29.285 63.538-11.064 93.239-11.249 16.923-9.4218 40.034 5.4876 54.945 8.2345 8.2352 19.181 12.77 30.826 12.77 8.7177-7e-4 17.044-2.5439 24.135-7.2771 12.193 7.4781 25.889 11.153 39.528 11.152 19.577-7e-4 39.026-7.5524 53.694-22.22l165.36-165.36c24.889-24.889 29.284-63.537 11.064-93.236zm-311.63 123.38 165.35-165.36c12.348-12.348 28.765-19.148 46.229-19.148 11.003 0 21.663 2.7111 31.191 7.8897l-254.03 254.04c-13.681-25.165-9.3846-56.782 11.258-77.422zm293.17-37.542-165.35 165.36c-20.642 20.643-52.258 24.942-77.42 11.257l45.67-45.67-7.3969-7.3969-47.38 47.38c-0.85896 0.8569-1.7895 1.6876-2.7648 2.4688h-3e-3c-5.851 4.6885-13.061 7.2407-20.667 7.2407-8.8498 0-17.17-3.4462-23.428-9.7054-12.056-12.058-12.856-31.17-2.4076-44.167 0.11632-0.1446 0.23195-0.2829 0.34895-0.4226 0.27325-0.3304 0.55131-0.658 0.84039-0.9801 0.0468-0.052 0.095-0.1026 0.14178-0.1542 0.34964-0.3834 0.70617-0.7619 1.0765-1.1322l257.46-257.46c0.84107-0.8397 1.7709-1.6691 2.7627-2.4633l0.0365-0.0289c12.997-10.36 32.037-9.5333 44.063 2.4895 12.04 12.039 12.853 31.113 2.4516 44.111-0.79014 0.98491-1.6147 1.91-2.4523 2.7483l-200.21 200.21 7.3969 7.3968 198.5-198.5c13.682 25.164 9.3832 56.778-11.259 77.42z" style="fill-opacity:.058219;fill:#9c9e9e;stroke-width:.68827"/>
     </g>
    </g>
    <g transform="matrix(.51071 0 0 .51071 551.54 1038.4)" style="fill-opacity:.058219;fill:#9c9e9e">
     <g style="fill-opacity:.058219;fill:#9c9e9e">
      <path d="m454.56 71.709c-8.149 8.148-16.82 7.447-27.794 6.556-11.873-0.964-26.648-2.164-39.766 10.956-13.121 13.119-11.92 27.895-10.954 39.769 0.892 10.974 1.596 19.642-6.549 27.789-8.148 8.147-16.816 7.444-27.792 6.552-11.872-0.966-26.649-2.164-39.766 10.954-13.121 13.12-11.923 27.896-10.959 39.769 0.891 10.975 1.593 19.644-6.557 27.793-8.149 8.149-16.819 7.446-27.793 6.556-11.876-0.965-26.651-2.162-39.769 10.957-13.119 13.12-11.921 27.896-10.957 39.77 0.89 10.975 1.593 19.645-6.556 27.794-8.151 8.151-16.821 7.449-27.795 6.556-11.872-0.965-26.648-2.166-39.77 10.957-13.12 13.12-11.922 27.897-10.959 39.772 0.891 10.977 1.593 19.647-6.558 27.797-8.15 8.151-16.815 7.45-27.797 6.557-11.874-0.962-26.652-2.16-39.774 10.96l10.747 10.747c8.151-8.151 16.821-7.447 27.799-6.559 11.873 0.965 26.651 2.161 39.772-10.959 13.12-13.121 11.922-27.898 10.959-39.772-0.891-10.977-1.593-19.647 6.558-27.798 8.147-8.15 16.818-7.45 27.793-6.556 11.877 0.964 26.65 2.163 39.771-10.956 13.118-13.119 11.919-27.895 10.956-39.769-0.89-10.975-1.593-19.645 6.557-27.795 8.148-8.15 16.816-7.447 27.792-6.555 11.873 0.961 26.65 2.162 39.769-10.957 13.12-13.12 11.922-27.895 10.959-39.769-0.891-10.975-1.594-19.644 6.557-27.794 8.146-8.146 16.814-7.443 27.79-6.552 11.875 0.965 26.649 2.165 39.768-10.954 13.116-13.118 11.915-27.893 10.951-39.766-0.892-10.975-1.597-19.643 6.553-27.792 8.148-8.148 16.816-7.444 27.79-6.555 11.877 0.963 26.65 2.163 39.771-10.958z" style="fill-opacity:.058219;fill:#9c9e9e"/>
     </g>
    </g>
    <g transform="matrix(.60719 0 0 .60719 513.83 797.97)" style="fill-opacity:.058219;fill:#9c9e9e">
     <g style="fill-opacity:.058219;fill:#9c9e9e">
      <g style="fill-opacity:.058219;fill:#9c9e9e">
       <path d="m285.86 91.869c-6.811-8.754-16.48-13.703-28.731-14.734v-36.612c0-4.143-3.358-7.5-7.5-7.5h-25.488v-25.523c0-4.143-3.358-7.5-7.5-7.5h-32.988c-4.143 0-7.5 3.357-7.5 7.5v42.263h-17.989v-27.359c0-4.143-3.358-7.5-7.5-7.5h-32.989c-4.142 0-7.5 3.357-7.5 7.5v8.518h-25.487c-4.142 0-7.5 3.358-7.5 7.5v38.712c-12.251 1.031-21.919 5.98-28.732 14.734-15.058 19.35-9.751 50.351-9.518 51.661 6e-3 0.033 37.621 184.77 37.621 184.77 0.711 3.494 3.784 6.004 7.349 6.004h166.5c3.565 0 6.638-2.51 7.35-6.004 0 0 37.615-184.74 37.621-184.77 0.231-1.309 5.538-32.31-9.52-51.66zm-28.731 0.333c7.37 0.865 12.902 3.768 16.869 8.848 7.639 9.781 7.864 25.155 7.284 33.666h-24.153zm-32.988-44.179h17.988v86.692h-5.355c-4.142 0-7.5 3.357-7.5 7.5 0 4.781-1.851 9.457-5.133 13.779zm-32.989-33.023h17.988v153.38c-5.299 2.962-11.393 5.425-17.988 7.207zm-32.988 49.763h17.988v113.56c-2.959 0.29-5.964 0.442-8.994 0.442-3.031 0-6.035-0.152-8.994-0.442zm-32.989-34.859h17.989v145.68c-6.596-1.782-12.69-4.245-17.989-7.208v-138.47zm-32.987 16.019h17.987v110.07c-3.282-4.323-5.132-8.997-5.132-13.778 0-4.143-3.358-7.5-7.5-7.5h-5.355zm-31.894 55.158c3.968-5.099 9.509-8.012 16.894-8.879v42.514h-24.19c-0.629-9.415 0.106-24.395 7.296-33.635zm183.99 218.23h-154.25l-34.532-169.59h35.395c5.622 24.54 38.262 44.051 76.261 44.051s70.639-19.511 76.261-44.051h35.396z" style="fill-opacity:.058219;fill:#9c9e9e"/>
       <g style="fill-opacity:.058219;fill:#9c9e9e">
        <path d="m167.15 299.31c-16.178 0-31.482-4.477-43.093-12.605-12.424-8.698-19.267-20.525-19.267-33.303s6.842-24.605 19.267-33.303c11.61-8.129 26.915-12.605 43.093-12.605s31.482 4.477 43.093 12.605c12.425 8.698 19.267 20.525 19.267 33.303s-6.842 24.605-19.267 33.303c-11.61 8.129-26.915 12.605-43.093 12.605zm0-76.816c-25.672 0-47.359 14.154-47.359 30.908s21.687 30.908 47.359 30.908 47.359-14.154 47.359-30.908-21.687-30.908-47.359-30.908z" style="fill-opacity:.058219;fill:#9c9e9e"/>
       </g>
      </g>
     </g>
    </g>
   </g>
  </g>
 </g>
</svg>
